<svg width="140" height="140" fill="none" xmlns="http://www.w3.org/2000/svg"><g filter="url(#filter0_d_74_77)"><path d="M95.622 25.622L121.244 70l-25.622 44.378H44.378L18.756 70l25.622-44.378h51.244z" fill="url(#paint0_linear_74_77)"/></g><path d="M74.333 96.28h3.64v3.387h3.388v-3.704H85v-3.26h-3.514L81.444 89H77.93l-.041 3.704h-3.556v3.576zm12-12.07h2.728v2.123h2.545V84.02h2.727v-2.038h-2.626l-.04-2.314H89.04L89 81.98h-2.667v2.228zM85 54.882h1.825V57h1.684v-2.32h1.824v-2.029H88.58l-.035-2.319H86.79l-.018 2.32H85v2.229zm5.333 13.342h2.278v2.11h2.111v-2.317H97v-2.034h-2.204l-.018-2.316h-2.204l-.019 2.316h-2.222v2.241zM77 46.394h1.373v1.273h1.254v-1.394H81V45.06h-1.313l-.02-1.394h-1.314l-.02 1.394H77v1.333zM66.333 43.73h1.365V45h1.27v-1.39h1.365v-1.22h-1.317L68.992 41h-1.318v1.39h-1.34v1.34zM57 42.811h.922v.856h.823v-.931h.922v-.805h-.873L58.77 41h-.873v.93H57v.881zm16.332 26.005a13.573 13.573 0 00-3.238-4.5l-1.137-1.043a.316.316 0 00-.508.13l-.508 1.456c-.316.914-.898 1.848-1.722 2.766a.244.244 0 01-.16.078.216.216 0 01-.168-.059.23.23 0 01-.079-.187c.145-2.352-.558-5.004-2.097-7.89-1.274-2.4-3.043-4.27-5.254-5.575l-1.613-.95a.313.313 0 00-.47.286l.087 1.875c.058 1.281-.09 2.414-.442 3.355a11.135 11.135 0 01-1.836 3.184 11.542 11.542 0 01-1.855 1.8 13.774 13.774 0 00-3.918 4.747A13.584 13.584 0 0047 74.316c0 1.844.363 3.63 1.082 5.313a13.724 13.724 0 007.32 7.25c1.696.71 3.493 1.07 5.348 1.07s3.652-.36 5.348-1.066a13.619 13.619 0 004.37-2.918A13.522 13.522 0 0074.5 74.32c0-1.906-.39-3.757-1.168-5.504zm-4.73 13.254a11.075 11.075 0 01-7.852 3.219c-2.969 0-5.754-1.14-7.852-3.219-2.09-2.074-3.242-4.824-3.242-7.75 0-1.699.383-3.328 1.137-4.843a11.048 11.048 0 013.156-3.825 13.655 13.655 0 002.29-2.218 13.838 13.838 0 002.273-3.946 9.375 9.375 0 00.472-1.816c.942.867 1.73 1.914 2.391 3.14 1.305 2.446 1.906 4.621 1.79 6.473a2.89 2.89 0 003.038 3.07 2.855 2.855 0 001.992-.953c.52-.582.97-1.175 1.344-1.78.547.698 1.004 1.46 1.367 2.28a10.83 10.83 0 01.938 4.418c0 2.926-1.153 5.68-3.242 7.75z" fill="#fff"/><defs><linearGradient id="paint0_linear_74_77" x1="53.563" y1="7.256" x2="83.074" y2="131.394" gradientUnits="userSpaceOnUse"><stop offset=".062" stop-color="#FF8049"/><stop offset="1" stop-color="#FF273E"/></linearGradient><filter id="filter0_d_74_77" x="13.632" y="22.547" width="112.736" height="99.005" filterUnits="userSpaceOnUse" color-interpolation-filters="sRGB"><feFlood flood-opacity="0" result="BackgroundImageFix"/><feColorMatrix in="SourceAlpha" values="0 0 0 0 0 0 0 0 0 0 0 0 0 0 0 0 0 0 127 0" result="hardAlpha"/><feOffset dy="2.05"/><feGaussianBlur stdDeviation="2.562"/><feComposite in2="hardAlpha" operator="out"/><feColorMatrix values="0 0 0 0 0 0 0 0 0 0 0 0 0 0 0 0 0 0 0.15 0"/><feBlend in2="BackgroundImageFix" result="effect1_dropShadow_74_77"/><feBlend in="SourceGraphic" in2="effect1_dropShadow_74_77" result="shape"/></filter></defs></svg>