<svg width="140" height="140" fill="none" xmlns="http://www.w3.org/2000/svg"><g filter="url(#filter0_d_74_134)"><path d="M95.622 25.622L121.244 70l-25.622 44.378H44.378L18.756 70l25.622-44.378h51.244z" fill="url(#paint0_linear_74_134)"/></g><path d="M64.768 63.846a5.048 5.048 0 10-5.049-5.048l5.049 5.048zm0 0a5.048 5.048 0 01-5.049-5.048l5.049 5.048zm2.465 15.625a9.593 9.593 0 00-5.489-6.533 7.877 7.877 0 001.308-7.196h4.176a6.681 6.681 0 016.673 6.673v5.537l-.017.009s0 0 0 0c-.112.056-2.481 1.226-6.65 1.51zm-3.215 1.58v5.536l-.017.009s0 0 0 0c-.125.063-3.17 1.574-8.476 1.574-2.697 0-5.983-.39-9.775-1.564V81.05a6.682 6.682 0 016.674-6.673h4.92a6.682 6.682 0 016.674 6.673zM49.836 67.432a5.048 5.048 0 1110.096 0 5.048 5.048 0 01-10.096 0z" stroke="#fff" stroke-width="1.5"/><path d="M74.333 95.947h3.639v3.386h3.39V95.63H85v-3.26h-3.514l-.042-3.703H77.93l-.041 3.704h-3.556v3.576zm12-12.071h2.728V86h2.545v-2.314h2.727v-2.038h-2.626l-.04-2.314H89.04L89 81.648h-2.667v2.228zM85 54.548h1.825v2.119h1.684v-2.32h1.824V52.32H88.58L88.544 50H86.79l-.018 2.319H85v2.23zm5.333 13.342h2.278V70h2.111v-2.316H97V65.65h-2.204l-.018-2.317h-2.204l-.019 2.317h-2.222v2.24zM77 46.06h1.373v1.273h1.254V45.94H81v-1.213h-1.313l-.02-1.393h-1.314l-.02 1.393H77v1.334zm-10.667-2.663h1.365v1.27h1.27v-1.39h1.365v-1.221h-1.317l-.024-1.39h-1.318v1.39h-1.34v1.341zM57 42.478h.922v.855h.823v-.93h.922v-.805h-.873l-.024-.931h-.873v.93H57v.881z" fill="#fff"/><defs><linearGradient id="paint0_linear_74_134" x1="53.563" y1="7.256" x2="83.074" y2="131.394" gradientUnits="userSpaceOnUse"><stop offset=".062" stop-color="#FF8049"/><stop offset="1" stop-color="#FF273E"/></linearGradient><filter id="filter0_d_74_134" x="13.595" y="22.525" width="112.809" height="99.078" filterUnits="userSpaceOnUse" color-interpolation-filters="sRGB"><feFlood flood-opacity="0" result="BackgroundImageFix"/><feColorMatrix in="SourceAlpha" values="0 0 0 0 0 0 0 0 0 0 0 0 0 0 0 0 0 0 127 0" result="hardAlpha"/><feOffset dy="2.064"/><feGaussianBlur stdDeviation="2.58"/><feComposite in2="hardAlpha" operator="out"/><feColorMatrix values="0 0 0 0 0 0 0 0 0 0 0 0 0 0 0 0 0 0 0.15 0"/><feBlend in2="BackgroundImageFix" result="effect1_dropShadow_74_134"/><feBlend in="SourceGraphic" in2="effect1_dropShadow_74_134" result="shape"/></filter></defs></svg>