<svg width="140" height="140" fill="none" xmlns="http://www.w3.org/2000/svg"><g filter="url(#filter0_d_74_281)"><path d="M95.622 25.622L121.244 70l-25.622 44.378H44.378L18.756 70l25.622-44.378h51.244z" fill="#fff"/></g><path d="M67.732 66.403l-4.188 6.03a1.958 1.958 0 012.725-.491c1.231.855.41 2.842-.206 3.73a1.713 1.713 0 112.814 1.954.261.261 0 00.056.349 2.937 2.937 0 01.542 3.94l-1.395 2.01c-2.12 2.687-3.062 4.342-5.734 5.254l-9.365-6.502c.447-2.967.279-4.87 1.027-8.523.466-2.274 3.98-2.3 5.343-2.546l5.164-7.438a1.958 1.958 0 013.217 2.233z" fill="url(#paint0_linear_74_281)" stroke="url(#paint1_linear_74_281)" stroke-width="1.5"/><rect x="51.613" y="82.323" width="13.705" height="1.468" rx=".734" transform="rotate(34.773 51.613 82.323)" stroke="url(#paint2_linear_74_281)" stroke-width="1.468"/><path d="M58.717 59.315l3.757 2.588" stroke="url(#paint3_linear_74_281)" stroke-width="1.5" stroke-linecap="round"/><path d="M70.879 67.697l3.757 2.589" stroke="url(#paint4_linear_74_281)" stroke-width="1.5" stroke-linecap="round"/><path d="M72.067 64.667l5.07-.526" stroke="url(#paint5_linear_74_281)" stroke-width="1.5" stroke-linecap="round"/><path d="M64.073 55l1.343 4.635" stroke="url(#paint6_linear_74_281)" stroke-width="1.5" stroke-linecap="round"/><path d="M71.992 56.969L69.457 60.8" stroke="url(#paint7_linear_74_281)" stroke-width="1.5" stroke-linecap="round"/><path d="M74.333 95.947h3.639v3.386h3.39V95.63H85v-3.26h-3.514l-.042-3.703H77.93l-.041 3.704h-3.556v3.576z" fill="url(#paint8_linear_74_281)"/><path d="M86.333 83.876h2.728V86h2.545v-2.314h2.727v-2.038h-2.626l-.04-2.314H89.04L89 81.648h-2.667v2.228z" fill="url(#paint9_linear_74_281)"/><path d="M85 54.548h1.825v2.119h1.684v-2.32h1.824V52.32H88.58L88.544 50H86.79l-.018 2.319H85v2.23z" fill="url(#paint10_linear_74_281)"/><path d="M90.333 67.89h2.278V70h2.111v-2.316H97V65.65h-2.204l-.018-2.317h-2.204l-.019 2.317h-2.222v2.24z" fill="url(#paint11_linear_74_281)"/><path d="M77 46.06h1.373v1.273h1.254V45.94H81v-1.213h-1.313l-.02-1.393h-1.314l-.02 1.393H77v1.334z" fill="url(#paint12_linear_74_281)"/><path d="M66.333 43.397h1.365v1.27h1.27v-1.39h1.365v-1.221h-1.317l-.024-1.39h-1.318v1.39h-1.34v1.341z" fill="url(#paint13_linear_74_281)"/><path d="M57 42.478h.922v.855h.823v-.93h.922v-.805h-.873l-.024-.931h-.873v.93H57v.881z" fill="url(#paint14_linear_74_281)"/><defs><linearGradient id="paint0_linear_74_281" x1="53.917" y1="64.621" x2="74.685" y2="79.094" gradientUnits="userSpaceOnUse"><stop offset=".062" stop-color="#FF8049"/><stop offset="1" stop-color="#FF273E"/></linearGradient><linearGradient id="paint1_linear_74_281" x1="53.917" y1="64.621" x2="74.685" y2="79.094" gradientUnits="userSpaceOnUse"><stop offset=".062" stop-color="#FF8049"/><stop offset="1" stop-color="#FF273E"/></linearGradient><linearGradient id="paint2_linear_74_281" x1="52.263" y1="81.448" x2="53.153" y2="86.316" gradientUnits="userSpaceOnUse"><stop offset=".062" stop-color="#FF8049"/><stop offset="1" stop-color="#FF273E"/></linearGradient><linearGradient id="paint3_linear_74_281" x1="58.925" y1="59.449" x2="59.362" y2="62.186" gradientUnits="userSpaceOnUse"><stop offset=".062" stop-color="#FF8049"/><stop offset="1" stop-color="#FF273E"/></linearGradient><linearGradient id="paint4_linear_74_281" x1="71.088" y1="67.831" x2="71.524" y2="70.569" gradientUnits="userSpaceOnUse"><stop offset=".062" stop-color="#FF8049"/><stop offset="1" stop-color="#FF273E"/></linearGradient><linearGradient id="paint5_linear_74_281" x1="72.34" y1="64.629" x2="74.999" y2="66.602" gradientUnits="userSpaceOnUse"><stop offset=".062" stop-color="#FF8049"/><stop offset="1" stop-color="#FF273E"/></linearGradient><linearGradient id="paint6_linear_74_281" x1="64.155" y1="55.247" x2="62.971" y2="58.456" gradientUnits="userSpaceOnUse"><stop offset=".062" stop-color="#FF8049"/><stop offset="1" stop-color="#FF273E"/></linearGradient><linearGradient id="paint7_linear_74_281" x1="71.86" y1="57.181" x2="69.5" y2="57.273" gradientUnits="userSpaceOnUse"><stop offset=".062" stop-color="#FF8049"/><stop offset="1" stop-color="#FF273E"/></linearGradient><linearGradient id="paint8_linear_74_281" x1="74.92" y1="89.2" x2="84.04" y2="98.853" gradientUnits="userSpaceOnUse"><stop offset=".062" stop-color="#FF8049"/><stop offset="1" stop-color="#FF273E"/></linearGradient><linearGradient id="paint9_linear_74_281" x1="86.773" y1="79.667" x2="92.323" y2="86.716" gradientUnits="userSpaceOnUse"><stop offset=".062" stop-color="#FF8049"/><stop offset="1" stop-color="#FF273E"/></linearGradient><linearGradient id="paint10_linear_74_281" x1="85.293" y1="50.333" x2="90.924" y2="55.102" gradientUnits="userSpaceOnUse"><stop offset=".062" stop-color="#FF8049"/><stop offset="1" stop-color="#FF273E"/></linearGradient><linearGradient id="paint11_linear_74_281" x1="90.7" y1="63.667" x2="96.4" y2="69.7" gradientUnits="userSpaceOnUse"><stop offset=".062" stop-color="#FF8049"/><stop offset="1" stop-color="#FF273E"/></linearGradient><linearGradient id="paint12_linear_74_281" x1="77.22" y1="43.533" x2="80.64" y2="47.154" gradientUnits="userSpaceOnUse"><stop offset=".062" stop-color="#FF8049"/><stop offset="1" stop-color="#FF273E"/></linearGradient><linearGradient id="paint13_linear_74_281" x1="66.553" y1="40.867" x2="69.973" y2="44.487" gradientUnits="userSpaceOnUse"><stop offset=".062" stop-color="#FF8049"/><stop offset="1" stop-color="#FF273E"/></linearGradient><linearGradient id="paint14_linear_74_281" x1="57.147" y1="40.8" x2="59.427" y2="43.213" gradientUnits="userSpaceOnUse"><stop offset=".062" stop-color="#FF8049"/><stop offset="1" stop-color="#FF273E"/></linearGradient><filter id="filter0_d_74_281" x="13.632" y="22.547" width="112.736" height="99.005" filterUnits="userSpaceOnUse" color-interpolation-filters="sRGB"><feFlood flood-opacity="0" result="BackgroundImageFix"/><feColorMatrix in="SourceAlpha" values="0 0 0 0 0 0 0 0 0 0 0 0 0 0 0 0 0 0 127 0" result="hardAlpha"/><feOffset dy="2.05"/><feGaussianBlur stdDeviation="2.562"/><feComposite in2="hardAlpha" operator="out"/><feColorMatrix values="0 0 0 0 0 0 0 0 0 0 0 0 0 0 0 0 0 0 0.15 0"/><feBlend in2="BackgroundImageFix" result="effect1_dropShadow_74_281"/><feBlend in="SourceGraphic" in2="effect1_dropShadow_74_281" result="shape"/></filter></defs></svg>