<svg width="140" height="140" fill="none" xmlns="http://www.w3.org/2000/svg"><g filter="url(#filter0_d_74_167)"><path d="M95.622 25.622L121.244 70l-25.622 44.378H44.378L18.756 70l25.622-44.378h51.244z" fill="url(#paint0_linear_74_167)"/></g><path d="M62.617 73.77l5.115-7.367a1.958 1.958 0 00-.492-2.725v0a1.958 1.958 0 00-2.725.492l-6.978 10.051m11.201 3.606v0a2.937 2.937 0 01.737 4.087l-1.396 2.01" stroke="#fff" stroke-width="1.5"/><path d="M64.807 77.481l1.954-2.814a1.958 1.958 0 00-.492-2.725v0a1.958 1.958 0 00-2.725.492l-1.954 2.814" stroke="#fff" stroke-width="1.5"/><path d="M67.342 79.837l1.535-2.21a1.713 1.713 0 00-.43-2.385v0a1.713 1.713 0 00-2.384.43l-1.256 1.81m-5.456-5.874c-1.362.246-4.877.272-5.343 2.546-.748 3.652-.58 5.556-1.028 8.523l9.366 6.502c2.672-.912 3.613-2.567 5.733-5.255" stroke="#fff" stroke-width="1.5"/><rect x="51.613" y="82.323" width="13.705" height="1.468" rx=".734" transform="rotate(34.773 51.613 82.323)" stroke="#fff" stroke-width="1.468"/><path d="M58.717 59.315l3.757 2.588m8.405 5.794l3.757 2.589m-2.569-5.619l5.07-.526M64.073 55l1.343 4.635m6.576-2.666L69.457 60.8" stroke="#fff" stroke-width="1.5" stroke-linecap="round"/><path d="M74.333 95.947h3.639v3.386h3.39V95.63H85v-3.26h-3.514l-.042-3.703H77.93l-.041 3.704h-3.556v3.576zm12-12.071h2.728V86h2.545v-2.314h2.727v-2.038h-2.626l-.04-2.314H89.04L89 81.648h-2.667v2.228zM85 54.548h1.825v2.119h1.684v-2.32h1.824V52.32H88.58L88.544 50H86.79l-.018 2.319H85v2.23zm5.333 13.342h2.278V70h2.111v-2.316H97V65.65h-2.204l-.018-2.317h-2.204l-.019 2.317h-2.222v2.24zM77 46.06h1.373v1.273h1.254V45.94H81v-1.213h-1.313l-.02-1.393h-1.314l-.02 1.393H77v1.334zm-10.667-2.663h1.365v1.27h1.27v-1.39h1.365v-1.221h-1.317l-.024-1.39h-1.318v1.39h-1.34v1.341zM57 42.478h.922v.855h.823v-.93h.922v-.805h-.873l-.024-.931h-.873v.93H57v.881z" fill="#fff"/><defs><linearGradient id="paint0_linear_74_167" x1="53.563" y1="7.256" x2="83.074" y2="131.394" gradientUnits="userSpaceOnUse"><stop offset=".062" stop-color="#FF8049"/><stop offset="1" stop-color="#FF273E"/></linearGradient><filter id="filter0_d_74_167" x="13.632" y="22.547" width="112.736" height="99.005" filterUnits="userSpaceOnUse" color-interpolation-filters="sRGB"><feFlood flood-opacity="0" result="BackgroundImageFix"/><feColorMatrix in="SourceAlpha" values="0 0 0 0 0 0 0 0 0 0 0 0 0 0 0 0 0 0 127 0" result="hardAlpha"/><feOffset dy="2.05"/><feGaussianBlur stdDeviation="2.562"/><feComposite in2="hardAlpha" operator="out"/><feColorMatrix values="0 0 0 0 0 0 0 0 0 0 0 0 0 0 0 0 0 0 0.15 0"/><feBlend in2="BackgroundImageFix" result="effect1_dropShadow_74_167"/><feBlend in="SourceGraphic" in2="effect1_dropShadow_74_167" result="shape"/></filter></defs></svg>