<svg width="140" height="140" fill="none" xmlns="http://www.w3.org/2000/svg"><g filter="url(#filter0_d_74_102)"><path d="M95.622 25.622L121.244 70l-25.622 44.378H44.378L18.756 70l25.622-44.378h51.244z" fill="url(#paint0_linear_74_102)"/></g><path d="M62.069 82.081a.626.626 0 01.322-.107h14.763a.179.179 0 00.178-.179V60.179a.179.179 0 00-.178-.179H46.179a.18.18 0 00-.179.179v21.616a.18.18 0 00.179.179h6.102a.179.179 0 01.179.179l.125 6.603c0 .09 0 .125.143 0l9.34-6.675z" stroke="#fff" stroke-width="2" stroke-miterlimit="10"/><path d="M49.328 65.404h24.945m-24.945 4.259h24.945M49.328 74h12.043M64 74h10m-24.672 3.34h8.035" stroke="#fff" stroke-width="1.2" stroke-miterlimit="10" stroke-linecap="round"/><path d="M74.333 96.28h3.64v3.387h3.388v-3.704H85v-3.26h-3.514L81.445 89H77.93l-.042 3.704h-3.556v3.576zm12-12.07h2.728v2.123h2.545V84.02h2.727v-2.038h-2.626l-.04-2.314H89.04L89 81.98h-2.667v2.228zM85 54.882h1.825V57h1.684v-2.32h1.824v-2.029H88.58l-.035-2.319H86.79l-.018 2.32H85v2.229zm5.333 13.342h2.278v2.11h2.111v-2.317H97v-2.034h-2.204l-.018-2.316h-2.204l-.018 2.316h-2.223v2.241zM77 46.394h1.373v1.273h1.254v-1.394H81V45.06h-1.313l-.02-1.394h-1.314l-.02 1.394H77v1.333zM66.333 43.73h1.365V45h1.27v-1.39h1.365v-1.22h-1.317L68.992 41h-1.318v1.39h-1.34v1.34zM57 42.811h.922v.856h.823v-.931h.922v-.805h-.873L58.77 41h-.873v.93H57v.881z" fill="#fff"/><defs><linearGradient id="paint0_linear_74_102" x1="53.563" y1="7.256" x2="83.074" y2="131.394" gradientUnits="userSpaceOnUse"><stop offset=".062" stop-color="#FF8049"/><stop offset="1" stop-color="#FF273E"/></linearGradient><filter id="filter0_d_74_102" x="13.595" y="22.525" width="112.809" height="99.078" filterUnits="userSpaceOnUse" color-interpolation-filters="sRGB"><feFlood flood-opacity="0" result="BackgroundImageFix"/><feColorMatrix in="SourceAlpha" values="0 0 0 0 0 0 0 0 0 0 0 0 0 0 0 0 0 0 127 0" result="hardAlpha"/><feOffset dy="2.064"/><feGaussianBlur stdDeviation="2.58"/><feComposite in2="hardAlpha" operator="out"/><feColorMatrix values="0 0 0 0 0 0 0 0 0 0 0 0 0 0 0 0 0 0 0.15 0"/><feBlend in2="BackgroundImageFix" result="effect1_dropShadow_74_102"/><feBlend in="SourceGraphic" in2="effect1_dropShadow_74_102" result="shape"/></filter></defs></svg>