<svg width="140" height="140" fill="none" xmlns="http://www.w3.org/2000/svg"><g filter="url(#filter0_d_74_204)"><path d="M95.622 25.622L121.244 70l-25.622 44.378H44.378L18.756 70l25.622-44.378h51.244z" fill="#fff"/></g><g clip-path="url(#clip0_74_204)"><path d="M65.201 58.216l-.208.186.208-.186-3.243-3.631s0 0 0 0a1.191 1.191 0 00-1.686-.095h0a1.194 1.194 0 00-.095 1.685l1.854 2.076h-.964c-8.658 0-15.7 7.043-15.7 15.7 0 8.659 7.042 15.702 15.7 15.702 8.67 0 15.212-7.055 15.212-15.701 0-.06.002-.119.003-.179h0a7.07 7.07 0 00.002-.178 1.44 1.44 0 00-.037-.36.612.612 0 00-.228-.352.738.738 0 00-.444-.125.683.683 0 00-.445.135.571.571 0 00-.196.371c-.017.115-.01.241-.004.349l.004.067c.006.091.012.18.012.272 0 7.326-6.523 13.313-13.879 13.313-7.34 0-13.313-5.972-13.313-13.313s5.972-13.314 13.313-13.314h.964l-1.854 2.075a1.194 1.194 0 101.78 1.59l-.208-.185.209.186 3.243-3.631-.208-.186.208.186c.626-.7.626-1.757 0-2.457z" fill="url(#paint0_linear_74_204)" stroke="url(#paint1_linear_74_204)" stroke-width=".558"/><path d="M54.542 75.41a.93.93 0 00-1.862 0h1.862zm-1.862 3.258v.931h1.862v-.93H52.68zm0-3.258v3.258h1.862V75.41H52.68z" fill="url(#paint2_linear_74_204)"/><path d="M58.265 73.083a.93.93 0 10-1.862 0h1.862zm-1.862 5.586v.93h1.862v-.93h-1.862zm0-5.586v5.586h1.862v-5.586h-1.862z" fill="url(#paint3_linear_74_204)"/><path d="M61.989 71.687a.93.93 0 00-1.862 0h1.862zm-1.862 6.982v.93h1.862v-.93h-1.862zm0-6.982v6.982h1.862v-6.982h-1.862z" fill="url(#paint4_linear_74_204)"/><path d="M65.712 70.29a.93.93 0 00-1.862 0h1.862zm-1.862 8.378v.931h1.862v-.93H63.85zm0-8.378v8.378h1.862V70.29H63.85z" fill="url(#paint5_linear_74_204)"/><path d="M69.436 68.429a.93.93 0 00-1.862 0h1.862zm-1.862 10.24v.93h1.862v-.93h-1.862zm0-10.24v10.24h1.862v-10.24h-1.862z" fill="url(#paint6_linear_74_204)"/></g><path d="M72.333 96.28h3.639v3.387h3.39v-3.704H83v-3.26h-3.514L79.444 89H75.93l-.041 3.704h-3.556v3.576z" fill="url(#paint7_linear_74_204)"/><path d="M84.333 84.21h2.728v2.123h2.545V84.02h2.727v-2.038h-2.626l-.04-2.314H87.04L87 81.98h-2.667v2.228z" fill="url(#paint8_linear_74_204)"/><path d="M83 54.882h1.825V57h1.684v-2.32h1.824v-2.029H86.58l-.035-2.319H84.79l-.018 2.32H83v2.229z" fill="url(#paint9_linear_74_204)"/><path d="M88.333 68.224h2.278v2.11h2.111v-2.317H95v-2.034h-2.204l-.018-2.316h-2.204l-.019 2.316h-2.222v2.241z" fill="url(#paint10_linear_74_204)"/><path d="M75 46.394h1.373v1.273h1.254v-1.394H79V45.06h-1.313l-.02-1.394h-1.314l-.02 1.394H75v1.333z" fill="url(#paint11_linear_74_204)"/><path d="M64.333 43.73h1.365V45h1.27v-1.39h1.365v-1.22h-1.317L66.992 41h-1.318v1.39h-1.34v1.34z" fill="url(#paint12_linear_74_204)"/><path d="M55 42.811h.922v.856h.823v-.931h.922v-.805h-.873L56.77 41h-.873v.93H55v.881z" fill="url(#paint13_linear_74_204)"/><defs><linearGradient id="paint0_linear_74_204" x1="74.335" y1="87.628" x2="44.542" y2="60.203" gradientUnits="userSpaceOnUse"><stop offset=".062" stop-color="#FF8049"/><stop offset="1" stop-color="#FF273E"/></linearGradient><linearGradient id="paint1_linear_74_204" x1="74.335" y1="87.628" x2="44.542" y2="60.203" gradientUnits="userSpaceOnUse"><stop offset=".062" stop-color="#FF8049"/><stop offset="1" stop-color="#FF273E"/></linearGradient><linearGradient id="paint2_linear_74_204" x1="53.666" y1="75.573" x2="55.306" y2="76.106" gradientUnits="userSpaceOnUse"><stop offset=".062" stop-color="#FF8049"/><stop offset="1" stop-color="#FF273E"/></linearGradient><linearGradient id="paint3_linear_74_204" x1="57.389" y1="73.362" x2="59.139" y2="73.694" gradientUnits="userSpaceOnUse"><stop offset=".062" stop-color="#FF8049"/><stop offset="1" stop-color="#FF273E"/></linearGradient><linearGradient id="paint4_linear_74_204" x1="61.113" y1="72.036" x2="62.885" y2="72.305" gradientUnits="userSpaceOnUse"><stop offset=".062" stop-color="#FF8049"/><stop offset="1" stop-color="#FF273E"/></linearGradient><linearGradient id="paint5_linear_74_204" x1="64.836" y1="70.709" x2="66.621" y2="70.935" gradientUnits="userSpaceOnUse"><stop offset=".062" stop-color="#FF8049"/><stop offset="1" stop-color="#FF273E"/></linearGradient><linearGradient id="paint6_linear_74_204" x1="68.56" y1="68.941" x2="70.354" y2="69.126" gradientUnits="userSpaceOnUse"><stop offset=".062" stop-color="#FF8049"/><stop offset="1" stop-color="#FF273E"/></linearGradient><linearGradient id="paint7_linear_74_204" x1="72.92" y1="89.533" x2="82.04" y2="99.187" gradientUnits="userSpaceOnUse"><stop offset=".062" stop-color="#FF8049"/><stop offset="1" stop-color="#FF273E"/></linearGradient><linearGradient id="paint8_linear_74_204" x1="84.773" y1="80" x2="90.323" y2="87.049" gradientUnits="userSpaceOnUse"><stop offset=".062" stop-color="#FF8049"/><stop offset="1" stop-color="#FF273E"/></linearGradient><linearGradient id="paint9_linear_74_204" x1="83.293" y1="50.667" x2="88.924" y2="55.435" gradientUnits="userSpaceOnUse"><stop offset=".062" stop-color="#FF8049"/><stop offset="1" stop-color="#FF273E"/></linearGradient><linearGradient id="paint10_linear_74_204" x1="88.7" y1="64" x2="94.4" y2="70.033" gradientUnits="userSpaceOnUse"><stop offset=".062" stop-color="#FF8049"/><stop offset="1" stop-color="#FF273E"/></linearGradient><linearGradient id="paint11_linear_74_204" x1="75.22" y1="43.867" x2="78.64" y2="47.487" gradientUnits="userSpaceOnUse"><stop offset=".062" stop-color="#FF8049"/><stop offset="1" stop-color="#FF273E"/></linearGradient><linearGradient id="paint12_linear_74_204" x1="64.553" y1="41.2" x2="67.973" y2="44.82" gradientUnits="userSpaceOnUse"><stop offset=".062" stop-color="#FF8049"/><stop offset="1" stop-color="#FF273E"/></linearGradient><linearGradient id="paint13_linear_74_204" x1="55.147" y1="41.133" x2="57.427" y2="43.547" gradientUnits="userSpaceOnUse"><stop offset=".062" stop-color="#FF8049"/><stop offset="1" stop-color="#FF273E"/></linearGradient><clipPath id="clip0_74_204"><path fill="#fff" transform="translate(45 54)" d="M0 0h31.65v36.305H0z"/></clipPath><filter id="filter0_d_74_204" x="13.632" y="22.547" width="112.736" height="99.005" filterUnits="userSpaceOnUse" color-interpolation-filters="sRGB"><feFlood flood-opacity="0" result="BackgroundImageFix"/><feColorMatrix in="SourceAlpha" values="0 0 0 0 0 0 0 0 0 0 0 0 0 0 0 0 0 0 127 0" result="hardAlpha"/><feOffset dy="2.05"/><feGaussianBlur stdDeviation="2.562"/><feComposite in2="hardAlpha" operator="out"/><feColorMatrix values="0 0 0 0 0 0 0 0 0 0 0 0 0 0 0 0 0 0 0.15 0"/><feBlend in2="BackgroundImageFix" result="effect1_dropShadow_74_204"/><feBlend in="SourceGraphic" in2="effect1_dropShadow_74_204" result="shape"/></filter></defs></svg>