<svg width="140" height="140" fill="none" xmlns="http://www.w3.org/2000/svg"><g filter="url(#filter0_d_74_90)"><path d="M95.622 25.622L121.244 70l-25.622 44.378H44.378L18.756 70l25.622-44.378h51.244z" fill="url(#paint0_linear_74_90)"/></g><g clip-path="url(#clip0_74_90)" fill="#fff"><path d="M65.201 58.216l-.208.186.208-.186-3.243-3.631s0 0 0 0a1.191 1.191 0 00-1.686-.095h0a1.194 1.194 0 00-.095 1.685l1.854 2.076h-.964c-8.658 0-15.7 7.043-15.7 15.7 0 8.659 7.042 15.702 15.7 15.702 8.67 0 15.212-7.055 15.212-15.701 0-.06.002-.119.003-.179h0a7.07 7.07 0 00.002-.178 1.44 1.44 0 00-.037-.36.612.612 0 00-.228-.352.738.738 0 00-.444-.125.683.683 0 00-.445.135.571.571 0 00-.196.371c-.017.115-.01.241-.004.349l.004.067c.006.091.012.18.012.272 0 7.326-6.523 13.313-13.879 13.313-7.34 0-13.313-5.972-13.313-13.313s5.972-13.314 13.313-13.314h.964l-1.854 2.075a1.194 1.194 0 101.78 1.59l-.208-.185.209.186 3.243-3.631-.208-.186.208.186c.626-.7.626-1.757 0-2.457z" stroke="#fff" stroke-width=".558"/><path d="M54.542 75.41a.93.93 0 00-1.862 0h1.862zm-1.862 3.258v.931h1.862v-.93H52.68zm0-3.258v3.258h1.862V75.41H52.68zm5.585-2.327a.93.93 0 10-1.862 0h1.862zm-1.862 5.586v.93h1.862v-.93h-1.862zm0-5.586v5.586h1.862v-5.586h-1.862zm5.586-1.396a.93.93 0 00-1.862 0h1.862zm-1.862 6.982v.93h1.862v-.93h-1.862zm0-6.982v6.982h1.862v-6.982h-1.862zm5.585-1.397a.93.93 0 00-1.862 0h1.862zm-1.862 8.378v.931h1.862v-.93H63.85zm0-8.378v8.378h1.862V70.29H63.85zm5.586-1.861a.93.93 0 00-1.862 0h1.862zm-1.862 10.24v.93h1.862v-.93h-1.862zm0-10.24v10.24h1.862v-10.24h-1.862z"/></g><path d="M72.333 96.28h3.639v3.387h3.39v-3.704H83v-3.26h-3.514L79.444 89H75.93l-.041 3.704h-3.556v3.576zm12-12.07h2.728v2.123h2.545V84.02h2.727v-2.038h-2.626l-.04-2.314H87.04L87 81.98h-2.667v2.228zM83 54.882h1.825V57h1.684v-2.32h1.824v-2.029H86.58l-.035-2.319H84.79l-.018 2.32H83v2.229zm5.333 13.342h2.278v2.11h2.111v-2.317H95v-2.034h-2.204l-.018-2.316h-2.204l-.019 2.316h-2.222v2.241zM75 46.394h1.373v1.273h1.254v-1.394H79V45.06h-1.313l-.02-1.394h-1.314l-.02 1.394H75v1.333zM64.333 43.73h1.365V45h1.27v-1.39h1.365v-1.22h-1.317L66.992 41h-1.318v1.39h-1.34v1.34zM55 42.811h.922v.856h.823v-.931h.922v-.805h-.873L56.77 41h-.873v.93H55v.881z" fill="#fff"/><defs><linearGradient id="paint0_linear_74_90" x1="53.563" y1="7.256" x2="83.074" y2="131.394" gradientUnits="userSpaceOnUse"><stop offset=".062" stop-color="#FF8049"/><stop offset="1" stop-color="#FF273E"/></linearGradient><clipPath id="clip0_74_90"><path fill="#fff" transform="translate(45 54)" d="M0 0h31.65v36.305H0z"/></clipPath><filter id="filter0_d_74_90" x="13.632" y="22.547" width="112.736" height="99.005" filterUnits="userSpaceOnUse" color-interpolation-filters="sRGB"><feFlood flood-opacity="0" result="BackgroundImageFix"/><feColorMatrix in="SourceAlpha" values="0 0 0 0 0 0 0 0 0 0 0 0 0 0 0 0 0 0 127 0" result="hardAlpha"/><feOffset dy="2.05"/><feGaussianBlur stdDeviation="2.562"/><feComposite in2="hardAlpha" operator="out"/><feColorMatrix values="0 0 0 0 0 0 0 0 0 0 0 0 0 0 0 0 0 0 0.15 0"/><feBlend in2="BackgroundImageFix" result="effect1_dropShadow_74_90"/><feBlend in="SourceGraphic" in2="effect1_dropShadow_74_90" result="shape"/></filter></defs></svg>