<svg width="140" height="140" fill="none" xmlns="http://www.w3.org/2000/svg"><g filter="url(#filter0_d_74_120)"><path d="M95.622 25.622L121.244 70l-25.622 44.378H44.378L18.756 70l25.622-44.378h51.244z" fill="url(#paint0_linear_74_120)"/></g><path d="M75.12 59.148H64.47l-5.508 9.571 5.508 9.763h10.65l5.324-9.763-5.324-9.57zM56.31 73.111h-7.454L45 79.491 48.856 86h7.454l3.727-6.508-3.727-6.38zM56.567 57h-4.792l-2.479 4.254 2.479 4.339h4.792l2.396-4.34L56.567 57z" stroke="#fff" stroke-width="2.148"/><path d="M74.333 95.947h3.64v3.386h3.388V95.63H85v-3.26h-3.514l-.041-3.703H77.93l-.042 3.704h-3.556v3.576zm12-12.071h2.728V86h2.545v-2.314h2.727v-2.038h-2.626l-.04-2.314H89.04L89 81.648h-2.667v2.228zM85 54.548h1.825v2.119h1.684v-2.32h1.824V52.32H88.58L88.544 50H86.79l-.018 2.319H85v2.23zm5.333 13.342h2.278V70h2.111v-2.316H97V65.65h-2.204l-.018-2.317h-2.204l-.018 2.317h-2.223v2.24zM77 46.06h1.373v1.273h1.254V45.94H81v-1.213h-1.313l-.02-1.393h-1.314l-.02 1.393H77v1.334zm-10.667-2.663h1.365v1.27h1.27v-1.39h1.365v-1.221h-1.317l-.024-1.39h-1.318v1.39h-1.34v1.341zM57 42.478h.922v.855h.823v-.93h.922v-.805h-.873l-.024-.931h-.873v.93H57v.881z" fill="#fff"/><defs><linearGradient id="paint0_linear_74_120" x1="53.563" y1="7.256" x2="83.074" y2="131.394" gradientUnits="userSpaceOnUse"><stop offset=".062" stop-color="#FF8049"/><stop offset="1" stop-color="#FF273E"/></linearGradient><filter id="filter0_d_74_120" x="13.595" y="22.525" width="112.809" height="99.078" filterUnits="userSpaceOnUse" color-interpolation-filters="sRGB"><feFlood flood-opacity="0" result="BackgroundImageFix"/><feColorMatrix in="SourceAlpha" values="0 0 0 0 0 0 0 0 0 0 0 0 0 0 0 0 0 0 127 0" result="hardAlpha"/><feOffset dy="2.064"/><feGaussianBlur stdDeviation="2.58"/><feComposite in2="hardAlpha" operator="out"/><feColorMatrix values="0 0 0 0 0 0 0 0 0 0 0 0 0 0 0 0 0 0 0.15 0"/><feBlend in2="BackgroundImageFix" result="effect1_dropShadow_74_120"/><feBlend in="SourceGraphic" in2="effect1_dropShadow_74_120" result="shape"/></filter></defs></svg>