<svg width="140" height="140" fill="none" xmlns="http://www.w3.org/2000/svg"><g filter="url(#filter0_d_74_234)"><path d="M95.622 25.622L121.244 70l-25.622 44.378H44.378L18.756 70l25.622-44.378h51.244z" fill="#fff"/></g><path d="M64.471 59.148H75.12l5.324 9.571-5.324 9.763H64.47l-5.508-9.763 5.508-9.57z" fill="url(#paint0_linear_74_234)" stroke="url(#paint1_linear_74_234)" stroke-width="2.148"/><path d="M48.856 73.111h7.454l3.727 6.38L56.31 86h-7.454L45 79.492l3.856-6.38z" fill="url(#paint2_linear_74_234)" stroke="url(#paint3_linear_74_234)" stroke-width="2.148"/><path d="M51.775 57h4.792l2.396 4.254-2.396 4.339h-4.792l-2.479-4.34L51.775 57z" fill="url(#paint4_linear_74_234)" stroke="url(#paint5_linear_74_234)" stroke-width="2.148"/><path d="M74.333 95.947h3.64v3.386h3.388V95.63H85v-3.26h-3.514l-.041-3.703H77.93l-.042 3.704h-3.556v3.576z" fill="url(#paint6_linear_74_234)"/><path d="M86.333 83.876h2.728V86h2.545v-2.314h2.727v-2.038h-2.626l-.04-2.314H89.04L89 81.648h-2.667v2.228z" fill="url(#paint7_linear_74_234)"/><path d="M85 54.548h1.825v2.119h1.684v-2.32h1.824V52.32H88.58L88.544 50H86.79l-.018 2.319H85v2.23z" fill="url(#paint8_linear_74_234)"/><path d="M90.333 67.89h2.278V70h2.111v-2.316H97V65.65h-2.204l-.018-2.317h-2.204l-.018 2.317h-2.223v2.24z" fill="url(#paint9_linear_74_234)"/><path d="M77 46.06h1.373v1.273h1.254V45.94H81v-1.213h-1.313l-.02-1.393h-1.314l-.02 1.393H77v1.334z" fill="url(#paint10_linear_74_234)"/><path d="M66.333 43.397h1.365v1.27h1.27v-1.39h1.365v-1.221h-1.317l-.024-1.39h-1.318v1.39h-1.34v1.341z" fill="url(#paint11_linear_74_234)"/><path d="M57 42.478h.922v.855h.823v-.93h.922v-.805h-.873l-.024-.931h-.873v.93H57v.881z" fill="url(#paint12_linear_74_234)"/><defs><linearGradient id="paint0_linear_74_234" x1="60.144" y1="60.115" x2="76.486" y2="79.334" gradientUnits="userSpaceOnUse"><stop offset=".062" stop-color="#FF8049"/><stop offset="1" stop-color="#FF273E"/></linearGradient><linearGradient id="paint1_linear_74_234" x1="60.144" y1="60.115" x2="76.486" y2="79.334" gradientUnits="userSpaceOnUse"><stop offset=".062" stop-color="#FF8049"/><stop offset="1" stop-color="#FF273E"/></linearGradient><linearGradient id="paint2_linear_74_234" x1="45.827" y1="73.755" x2="56.624" y2="87.088" gradientUnits="userSpaceOnUse"><stop offset=".062" stop-color="#FF8049"/><stop offset="1" stop-color="#FF273E"/></linearGradient><linearGradient id="paint3_linear_74_234" x1="45.827" y1="73.755" x2="56.624" y2="87.088" gradientUnits="userSpaceOnUse"><stop offset=".062" stop-color="#FF8049"/><stop offset="1" stop-color="#FF273E"/></linearGradient><linearGradient id="paint4_linear_74_234" x1="49.828" y1="57.43" x2="57.076" y2="66.06" gradientUnits="userSpaceOnUse"><stop offset=".062" stop-color="#FF8049"/><stop offset="1" stop-color="#FF273E"/></linearGradient><linearGradient id="paint5_linear_74_234" x1="49.828" y1="57.43" x2="57.076" y2="66.06" gradientUnits="userSpaceOnUse"><stop offset=".062" stop-color="#FF8049"/><stop offset="1" stop-color="#FF273E"/></linearGradient><linearGradient id="paint6_linear_74_234" x1="74.92" y1="89.2" x2="84.04" y2="98.853" gradientUnits="userSpaceOnUse"><stop offset=".062" stop-color="#FF8049"/><stop offset="1" stop-color="#FF273E"/></linearGradient><linearGradient id="paint7_linear_74_234" x1="86.773" y1="79.667" x2="92.323" y2="86.716" gradientUnits="userSpaceOnUse"><stop offset=".062" stop-color="#FF8049"/><stop offset="1" stop-color="#FF273E"/></linearGradient><linearGradient id="paint8_linear_74_234" x1="85.293" y1="50.333" x2="90.924" y2="55.102" gradientUnits="userSpaceOnUse"><stop offset=".062" stop-color="#FF8049"/><stop offset="1" stop-color="#FF273E"/></linearGradient><linearGradient id="paint9_linear_74_234" x1="90.7" y1="63.667" x2="96.4" y2="69.7" gradientUnits="userSpaceOnUse"><stop offset=".062" stop-color="#FF8049"/><stop offset="1" stop-color="#FF273E"/></linearGradient><linearGradient id="paint10_linear_74_234" x1="77.22" y1="43.533" x2="80.64" y2="47.154" gradientUnits="userSpaceOnUse"><stop offset=".062" stop-color="#FF8049"/><stop offset="1" stop-color="#FF273E"/></linearGradient><linearGradient id="paint11_linear_74_234" x1="66.553" y1="40.867" x2="69.973" y2="44.487" gradientUnits="userSpaceOnUse"><stop offset=".062" stop-color="#FF8049"/><stop offset="1" stop-color="#FF273E"/></linearGradient><linearGradient id="paint12_linear_74_234" x1="57.147" y1="40.8" x2="59.427" y2="43.213" gradientUnits="userSpaceOnUse"><stop offset=".062" stop-color="#FF8049"/><stop offset="1" stop-color="#FF273E"/></linearGradient><filter id="filter0_d_74_234" x="13.595" y="22.525" width="112.809" height="99.078" filterUnits="userSpaceOnUse" color-interpolation-filters="sRGB"><feFlood flood-opacity="0" result="BackgroundImageFix"/><feColorMatrix in="SourceAlpha" values="0 0 0 0 0 0 0 0 0 0 0 0 0 0 0 0 0 0 127 0" result="hardAlpha"/><feOffset dy="2.064"/><feGaussianBlur stdDeviation="2.58"/><feComposite in2="hardAlpha" operator="out"/><feColorMatrix values="0 0 0 0 0 0 0 0 0 0 0 0 0 0 0 0 0 0 0.15 0"/><feBlend in2="BackgroundImageFix" result="effect1_dropShadow_74_234"/><feBlend in="SourceGraphic" in2="effect1_dropShadow_74_234" result="shape"/></filter></defs></svg>